<svg width="1395" height="516" viewBox="0 0 1395 516" fill="none" xmlns="http://www.w3.org/2000/svg">
<g clip-path="url(#clip0_35_23)">
<path d="M1.13484 208.178C-0.639892 205.695 -0.279608 203.934 1.84206 201.812L20.2165 185.492C22.6896 183.374 24.8068 183.73 26.5682 186.559C43.1813 214.116 72.1507 222.59 102.882 222.59C134.32 222.59 163.649 213.409 163.649 181.221C163.649 152.944 144.221 143.416 95.8227 137.397C43.8751 130.378 9.96845 111.295 9.96845 66.43C9.96845 26.8496 44.5824 0 99.7057 0C131.504 0 163.649 10.2487 187.682 37.0983C189.443 39.5671 189.443 42.0492 187.321 43.7707L169.654 59.7176C169.253 60.1847 168.75 60.5531 168.184 60.7942C167.618 61.0353 167.004 61.1426 166.389 61.1078C165.775 61.0729 165.177 60.8969 164.641 60.5933C164.106 60.2897 163.648 59.8667 163.302 59.3573C146.342 39.9274 124.792 30.6928 98.9985 30.6928C65.0785 30.6928 42.1137 42.7031 42.1137 65.6693C42.1137 89.6898 60.1279 99.2313 108.179 104.889C159.406 110.895 196.155 128.91 196.155 179.793C196.155 226.78 158.699 253.283 102.882 253.283C61.9026 253.336 24.4465 240.619 1.13484 208.178Z" fill="white"/>
<path d="M951.042 125.44C951.042 197.502 900.523 248.398 824.916 248.398H738.355C737.739 248.449 737.12 248.365 736.54 248.152C735.961 247.939 735.434 247.603 734.997 247.166C734.56 246.729 734.224 246.202 734.011 245.623C733.798 245.043 733.714 244.423 733.765 243.808V9.18112C733.717 8.56602 733.802 7.94778 734.016 7.36898C734.23 6.79017 734.566 6.26453 735.002 5.82826C735.439 5.39198 735.964 5.05543 736.543 4.84176C737.122 4.62809 737.74 4.54239 738.355 4.59054H824.916C900.523 4.59054 951.042 55.1136 951.042 125.44ZM916.068 125.44C916.068 71.7411 880.387 35.6971 823.862 35.6971H766.978V217.292H823.862C880.387 217.292 916.068 180.901 916.068 125.44Z" fill="white"/>
<path d="M1394.75 243.087L1306.43 8.1269C1306.04 7.0395 1305.31 6.10709 1304.35 5.4695C1303.39 4.83191 1302.24 4.52351 1301.09 4.59055H1265.44C1264.28 4.52351 1263.14 4.83191 1262.18 5.4695C1261.22 6.10709 1260.49 7.0395 1260.1 8.1269L1173.43 238.87L1105.38 150.235C1145.66 143.162 1167.92 114.551 1167.92 78.1733C1167.92 35.7771 1137.88 4.68397 1084.89 4.68397H995.904C995.289 4.63581 994.671 4.72152 994.092 4.93518C993.514 5.14885 992.988 5.48541 992.552 5.92168C992.115 6.35796 991.779 6.88359 991.565 7.4624C991.352 8.04121 991.266 8.65944 991.314 9.27455V243.795C991.266 244.41 991.352 245.028 991.565 245.607C991.779 246.185 992.115 246.711 992.552 247.147C992.988 247.584 993.514 247.92 994.092 248.134C994.671 248.348 995.289 248.433 995.904 248.385H1019.92C1020.54 248.436 1021.16 248.351 1021.74 248.139C1022.32 247.926 1022.84 247.589 1023.28 247.152C1023.72 246.716 1024.05 246.189 1024.27 245.609C1024.48 245.029 1024.56 244.41 1024.51 243.795V151.93H1065.15L1135.47 245.543C1136.11 246.434 1136.96 247.156 1137.94 247.648C1138.93 248.141 1140.01 248.389 1141.11 248.372H1173.62C1173.89 248.367 1174.17 248.34 1174.44 248.292C1174.75 248.339 1175.05 248.366 1175.35 248.372H1199.37C1200.53 248.499 1201.7 248.215 1202.68 247.569C1203.65 246.923 1204.37 245.956 1204.71 244.835L1226.97 185.131H1339.67L1361.94 244.835C1362.63 247.318 1364.75 248.372 1367.28 248.372H1391.3C1394.43 248.385 1395.77 246.263 1394.75 243.087ZM1024.53 121.544V35.6837H1082.83C1115.33 35.6837 1133.69 52.6449 1133.69 78.3868C1133.69 103.822 1115.33 121.49 1082.83 121.49L1024.53 121.544ZM1238.31 154.799L1283.53 33.602L1328.33 154.799H1238.31Z" fill="white"/>
<path d="M466.608 4.59058H305.281C303.49 4.59058 302.038 6.04241 302.038 7.83334V32.441C302.038 34.2319 303.49 35.6838 305.281 35.6838H466.608C468.399 35.6838 469.85 34.2319 469.85 32.441V7.83334C469.85 6.04241 468.399 4.59058 466.608 4.59058Z" fill="white"/>
<path d="M415.127 111.121H253.8C252.01 111.121 250.558 112.573 250.558 114.364V138.972C250.558 140.763 252.01 142.215 253.8 142.215H415.127C416.918 142.215 418.37 140.763 418.37 138.972V114.364C418.37 112.573 416.918 111.121 415.127 111.121Z" fill="white"/>
<path d="M466.608 217.292H305.281C303.49 217.292 302.038 218.744 302.038 220.535V245.142C302.038 246.933 303.49 248.385 305.281 248.385H466.608C468.399 248.385 469.85 246.933 469.85 245.142V220.535C469.85 218.744 468.399 217.292 466.608 217.292Z" fill="white"/>
<path d="M678.935 4.59058H517.608C515.817 4.59058 514.365 6.04241 514.365 7.83334V32.441C514.365 34.2319 515.817 35.6838 517.608 35.6838H678.935C680.725 35.6838 682.177 34.2319 682.177 32.441V7.83334C682.177 6.04241 680.725 4.59058 678.935 4.59058Z" fill="white"/>
<path d="M627.468 111.121H466.141C464.35 111.121 462.898 112.573 462.898 114.364V138.972C462.898 140.763 464.35 142.215 466.141 142.215H627.468C629.258 142.215 630.71 140.763 630.71 138.972V114.364C630.71 112.573 629.258 111.121 627.468 111.121Z" fill="white"/>
<path d="M678.935 217.292H517.608C515.817 217.292 514.365 218.744 514.365 220.535V245.142C514.365 246.933 515.817 248.385 517.608 248.385H678.935C680.725 248.385 682.177 246.933 682.177 245.142V220.535C682.177 218.744 680.725 217.292 678.935 217.292Z" fill="white"/>
<path d="M3.33667 344.414H1391.1" stroke="white" stroke-width="3" stroke-miterlimit="10"/>
<path d="M104.763 384.248H117.493C119.174 384.248 119.922 385.369 119.361 387.05L73.6986 511.503C73.5173 512.089 73.1397 512.595 72.6293 512.935C72.119 513.275 71.507 513.429 70.8964 513.371H52.215C51.6044 513.429 50.9924 513.275 50.482 512.935C49.9716 512.595 49.5941 512.089 49.4128 511.503L3.52335 386.997C2.96291 385.315 3.71017 384.194 5.39149 384.194H18.3083C18.9189 384.136 19.5309 384.29 20.0413 384.631C20.5517 384.971 20.9293 385.477 21.1105 386.063L61.529 496.824L101.961 386.063C102.152 385.487 102.534 384.993 103.043 384.663C103.553 384.333 104.159 384.187 104.763 384.248Z" fill="white"/>
<path d="M287.587 400.715H218.719V441.51H278.046C278.371 441.484 278.699 441.529 279.005 441.641C279.312 441.754 279.59 441.932 279.821 442.163C280.052 442.394 280.23 442.673 280.343 442.979C280.456 443.286 280.501 443.613 280.474 443.939V455.055C280.501 455.38 280.456 455.708 280.343 456.014C280.23 456.321 280.052 456.599 279.821 456.83C279.59 457.061 279.312 457.239 279.005 457.352C278.699 457.465 278.371 457.51 278.046 457.484H218.719V496.971H287.587C287.913 496.945 288.241 496.99 288.548 497.102C288.855 497.215 289.134 497.393 289.366 497.623C289.598 497.854 289.777 498.132 289.892 498.439C290.006 498.745 290.053 499.073 290.029 499.399V511.009C290.053 511.335 290.006 511.663 289.892 511.97C289.777 512.276 289.598 512.554 289.366 512.785C289.134 513.016 288.855 513.193 288.548 513.306C288.241 513.419 287.913 513.464 287.587 513.438H203.521C203.195 513.464 202.868 513.419 202.561 513.306C202.255 513.194 201.976 513.016 201.745 512.785C201.514 512.554 201.336 512.275 201.223 511.969C201.111 511.662 201.066 511.335 201.092 511.009V386.676C201.066 386.351 201.111 386.023 201.223 385.717C201.336 385.41 201.514 385.132 201.745 384.901C201.976 384.67 202.255 384.492 202.561 384.379C202.868 384.266 203.195 384.222 203.521 384.248H287.587C287.913 384.222 288.241 384.267 288.548 384.379C288.855 384.492 289.134 384.67 289.366 384.901C289.598 385.131 289.777 385.41 289.892 385.716C290.006 386.023 290.053 386.35 290.029 386.676V398.273C290.055 398.6 290.01 398.929 289.896 399.238C289.783 399.546 289.604 399.826 289.371 400.058C289.139 400.29 288.859 400.469 288.551 400.583C288.243 400.696 287.914 400.741 287.587 400.715Z" fill="white"/>
<path d="M470.784 384.248H482.954C483.279 384.222 483.607 384.266 483.913 384.379C484.22 384.492 484.498 384.67 484.729 384.901C484.96 385.132 485.138 385.41 485.251 385.717C485.364 386.023 485.409 386.351 485.382 386.676V510.942C485.409 511.268 485.364 511.595 485.251 511.902C485.138 512.208 484.96 512.487 484.729 512.718C484.498 512.949 484.22 513.127 483.913 513.24C483.607 513.352 483.279 513.397 482.954 513.371H467.035C466.447 513.421 465.857 513.308 465.33 513.045C464.802 512.781 464.358 512.377 464.046 511.877L394.244 408.015V510.942C394.268 511.269 394.221 511.596 394.107 511.903C393.993 512.209 393.813 512.488 393.581 512.718C393.349 512.949 393.07 513.127 392.763 513.239C392.456 513.352 392.128 513.397 391.802 513.371H379.646C379.32 513.397 378.992 513.352 378.685 513.239C378.378 513.127 378.099 512.949 377.867 512.718C377.635 512.488 377.455 512.209 377.341 511.903C377.227 511.596 377.18 511.269 377.204 510.942V386.676C377.18 386.35 377.227 386.023 377.341 385.716C377.455 385.41 377.635 385.131 377.867 384.901C378.099 384.67 378.378 384.492 378.685 384.379C378.992 384.267 379.32 384.222 379.646 384.248H397.42C398.001 384.239 398.576 384.37 399.097 384.631C399.617 384.891 400.067 385.272 400.409 385.742L468.369 486.428V386.676C468.343 386.352 468.388 386.026 468.5 385.72C468.612 385.415 468.788 385.137 469.018 384.906C469.247 384.676 469.524 384.497 469.829 384.384C470.134 384.27 470.46 384.224 470.784 384.248Z" fill="white"/>
<path d="M663.723 386.676V398.273C663.751 398.6 663.707 398.928 663.596 399.237C663.484 399.545 663.306 399.825 663.075 400.057C662.844 400.29 662.565 400.469 662.257 400.583C661.949 400.696 661.621 400.741 661.294 400.715H622.93V510.942C622.957 511.269 622.912 511.598 622.798 511.905C622.685 512.213 622.505 512.492 622.273 512.723C622.04 512.955 621.76 513.132 621.452 513.244C621.144 513.356 620.815 513.399 620.489 513.371H607.959C607.633 513.397 607.305 513.352 606.998 513.239C606.69 513.127 606.411 512.949 606.179 512.718C605.947 512.487 605.768 512.209 605.654 511.903C605.539 511.596 605.493 511.269 605.517 510.942V400.715H567.113C566.786 400.741 566.458 400.696 566.15 400.583C565.843 400.469 565.564 400.29 565.332 400.057C565.101 399.825 564.923 399.545 564.812 399.237C564.7 398.928 564.656 398.6 564.685 398.273V386.676C564.658 386.351 564.703 386.023 564.816 385.717C564.929 385.41 565.107 385.132 565.338 384.901C565.569 384.67 565.847 384.492 566.154 384.379C566.46 384.266 566.788 384.221 567.113 384.248H661.254C661.583 384.215 661.915 384.256 662.226 384.366C662.538 384.476 662.821 384.653 663.057 384.884C663.292 385.116 663.474 385.397 663.589 385.706C663.704 386.016 663.75 386.347 663.723 386.676Z" fill="white"/>
<path d="M739.129 454.241V386.676C739.102 386.351 739.147 386.023 739.26 385.717C739.373 385.41 739.551 385.132 739.782 384.901C740.013 384.67 740.291 384.492 740.598 384.379C740.904 384.266 741.232 384.222 741.557 384.248H754.287C754.613 384.222 754.94 384.266 755.247 384.379C755.553 384.492 755.832 384.67 756.063 384.901C756.294 385.132 756.472 385.41 756.584 385.717C756.697 386.023 756.742 386.351 756.716 386.676V452.733C756.716 484.173 771.874 498.772 793.211 498.772C814.548 498.772 829.893 484.173 829.893 452.733V386.676C829.867 386.351 829.912 386.023 830.025 385.717C830.138 385.41 830.316 385.132 830.547 384.901C830.778 384.67 831.056 384.492 831.362 384.379C831.669 384.266 831.996 384.222 832.322 384.248H844.865C845.191 384.222 845.518 384.266 845.825 384.379C846.131 384.492 846.41 384.67 846.64 384.901C846.871 385.132 847.049 385.41 847.162 385.717C847.275 386.023 847.32 386.351 847.294 386.676V454.241C847.294 493.728 823.715 516 793.211 516C762.707 516 739.129 493.754 739.129 454.241Z" fill="white"/>
<path d="M1015.91 511.877L978.664 462.288H957.14V510.942C957.166 511.268 957.122 511.595 957.009 511.902C956.896 512.208 956.718 512.487 956.487 512.718C956.256 512.949 955.978 513.127 955.671 513.24C955.365 513.352 955.037 513.397 954.712 513.371H941.982C941.656 513.397 941.329 513.352 941.022 513.24C940.716 513.127 940.437 512.949 940.206 512.718C939.975 512.487 939.797 512.208 939.685 511.902C939.572 511.595 939.527 511.268 939.553 510.942V386.676C939.527 386.351 939.572 386.023 939.685 385.717C939.797 385.41 939.975 385.132 940.206 384.901C940.437 384.67 940.716 384.492 941.022 384.379C941.329 384.266 941.656 384.222 941.982 384.248H989.139C1017.16 384.248 1033.17 400.715 1033.17 423.174C1033.17 442.444 1021.38 457.604 1000.05 461.353L1037.66 510.382C1038.79 511.877 1038.23 513.371 1036.16 513.371H1018.95C1018.36 513.388 1017.77 513.261 1017.24 513.001C1016.71 512.74 1016.25 512.354 1015.91 511.877ZM957.194 446.181H988.071C1005.28 446.181 1015.01 436.839 1015.01 423.361C1015.01 409.696 1005.28 400.675 988.071 400.675H957.14L957.194 446.181Z" fill="white"/>
<path d="M1209.58 400.715H1140.71V441.51H1200.04C1200.36 441.484 1200.69 441.529 1201 441.641C1201.3 441.754 1201.58 441.932 1201.81 442.163C1202.04 442.394 1202.22 442.673 1202.34 442.979C1202.45 443.286 1202.49 443.613 1202.47 443.939V455.055C1202.49 455.38 1202.45 455.708 1202.34 456.014C1202.22 456.321 1202.04 456.599 1201.81 456.83C1201.58 457.061 1201.3 457.239 1201 457.352C1200.69 457.465 1200.36 457.51 1200.04 457.484H1140.71V496.971H1209.58C1209.9 496.945 1210.23 496.99 1210.54 497.102C1210.85 497.215 1211.13 497.393 1211.36 497.623C1211.59 497.854 1211.77 498.132 1211.88 498.439C1212 498.745 1212.04 499.073 1212.02 499.399V511.009C1212.04 511.335 1212 511.663 1211.88 511.97C1211.77 512.276 1211.59 512.554 1211.36 512.785C1211.13 513.016 1210.85 513.193 1210.54 513.306C1210.23 513.419 1209.9 513.464 1209.58 513.438H1125.51C1125.19 513.464 1124.86 513.419 1124.55 513.306C1124.25 513.194 1123.97 513.016 1123.74 512.785C1123.51 512.554 1123.33 512.275 1123.22 511.969C1123.1 511.662 1123.06 511.335 1123.08 511.009V386.676C1123.06 386.351 1123.1 386.023 1123.22 385.717C1123.33 385.41 1123.51 385.132 1123.74 384.901C1123.97 384.67 1124.25 384.492 1124.55 384.379C1124.86 384.266 1125.19 384.222 1125.51 384.248H1209.58C1209.9 384.222 1210.23 384.267 1210.54 384.379C1210.85 384.492 1211.13 384.67 1211.36 384.901C1211.59 385.131 1211.77 385.41 1211.88 385.716C1212 386.023 1212.04 386.35 1212.02 386.676V398.273C1212.05 398.6 1212 398.929 1211.89 399.238C1211.77 399.546 1211.6 399.826 1211.36 400.058C1211.13 400.29 1210.85 400.469 1210.54 400.583C1210.24 400.696 1209.91 400.741 1209.58 400.715Z" fill="white"/>
<path d="M1287.8 492.033C1287.58 491.797 1287.42 491.517 1287.32 491.213C1287.22 490.908 1287.19 490.585 1287.22 490.266C1287.26 489.948 1287.36 489.64 1287.52 489.365C1287.69 489.089 1287.91 488.853 1288.17 488.67L1297.9 480.063C1298.12 479.795 1298.41 479.589 1298.73 479.467C1299.06 479.345 1299.41 479.311 1299.75 479.367C1300.09 479.424 1300.42 479.57 1300.68 479.791C1300.95 480.011 1301.16 480.298 1301.28 480.623C1310.07 495.222 1325.42 499.706 1341.7 499.706C1358.35 499.706 1373.88 494.849 1373.88 477.821C1373.88 462.848 1363.59 457.804 1337.95 454.614C1310.44 450.865 1292.48 440.763 1292.48 416.996C1292.48 396.031 1310.82 381.806 1340.01 381.806C1356.85 381.806 1373.88 387.237 1386.61 401.462C1386.85 401.701 1387.03 401.986 1387.14 402.299C1387.26 402.611 1387.31 402.945 1387.3 403.278C1387.28 403.612 1387.19 403.938 1387.04 404.237C1386.89 404.535 1386.68 404.799 1386.42 405.012L1377.08 413.433C1376.87 413.682 1376.61 413.879 1376.31 414.009C1376.01 414.138 1375.68 414.196 1375.36 414.178C1375.03 414.16 1374.71 414.066 1374.43 413.904C1374.15 413.743 1373.9 413.517 1373.72 413.246C1364.74 402.957 1353.32 398.086 1339.67 398.086C1321.69 398.086 1309.54 404.452 1309.54 416.622C1309.54 429.34 1319.08 434.397 1344.53 437.386C1371.67 440.576 1391.12 450.117 1391.12 477.06C1391.12 501.961 1371.29 516 1341.75 516C1319.99 516 1300.16 509.261 1287.8 492.033Z" fill="white"/>
</g>
<defs>
<clipPath id="clip0_35_23">
<rect width="1395" height="516" fill="white"/>
</clipPath>
</defs>
</svg>
