<svg width="512" height="512" viewBox="0 0 512 512" fill="none" xmlns="http://www.w3.org/2000/svg">
<path d="M448 255.314C448 312.001 408.259 352.04 348.783 352.04H280.689C280.205 352.079 279.718 352.013 279.261 351.846C278.805 351.678 278.391 351.413 278.048 351.07C277.704 350.726 277.439 350.312 277.272 349.856C277.104 349.4 277.038 348.913 277.078 348.428V163.859C277.04 163.375 277.107 162.888 277.276 162.433C277.444 161.978 277.708 161.564 278.052 161.221C278.395 160.878 278.808 160.613 279.263 160.445C279.719 160.277 280.205 160.209 280.689 160.247H348.783C408.259 160.247 448 199.991 448 255.314ZM420.487 255.314C420.487 213.072 392.419 184.717 347.953 184.717H303.205V327.569H347.953C392.419 327.569 420.487 298.942 420.487 255.314Z" fill="black"/>
<path d="M233.946 160.247H107.037C105.629 160.247 104.487 161.389 104.487 162.798V182.156C104.487 183.565 105.629 184.707 107.037 184.707H233.946C235.354 184.707 236.497 183.565 236.497 182.156V162.798C236.497 161.389 235.354 160.247 233.946 160.247Z" fill="black"/>
<path d="M193.459 244.05H66.5508C65.142 244.05 64 245.192 64 246.601V265.959C64 267.368 65.142 268.51 66.5508 268.51H193.459C194.868 268.51 196.01 267.368 196.01 265.959V246.601C196.01 245.192 194.868 244.05 193.459 244.05Z" fill="black"/>
<path d="M233.946 327.569H107.037C105.629 327.569 104.487 328.712 104.487 330.12V349.478C104.487 350.887 105.629 352.029 107.037 352.029H233.946C235.354 352.029 236.497 350.887 236.497 349.478V330.12C236.497 328.712 235.354 327.569 233.946 327.569Z" fill="black"/>
</svg>
